<svg xmlns="http://www.w3.org/2000/svg" viewBox="0 0 1440 820" width="1440" height="820" role="img"><rect x="0" y="0" width="1440" height="820" rx="0" fill="#f6f7fb"/><rect x="0" y="0" width="252" height="820" rx="0" fill="#23214f"/><circle cx="38" cy="40" r="17" fill="rgba(255,255,255,0.15)"/><text x="66" y="40" font-family="Segoe UI, Roboto, Helvetica, Arial, sans-serif" font-size="16" font-weight="700" fill="#fff" text-anchor="start" dominant-baseline="middle">Condomínio App</text><rect x="12" y="110" width="228" height="40" rx="10" fill="#4f46e5"/><rect x="26" y="122" width="16" height="16" rx="4" fill="#fff" opacity="1"/><text x="54" y="130.5" font-family="Segoe UI, Roboto, Helvetica, Arial, sans-serif" font-size="14" font-weight="700" fill="#fff" text-anchor="start" dominant-baseline="middle">Dashboard</text><rect x="26" y="168" width="16" height="16" rx="4" fill="rgba(255,255,255,0.72)" opacity="0.5"/><text x="54" y="176.5" font-family="Segoe UI, Roboto, Helvetica, Arial, sans-serif" font-size="14" font-weight="500" fill="rgba(255,255,255,0.72)" text-anchor="start" dominant-baseline="middle">Moradores</text><rect x="26" y="214" width="16" height="16" rx="4" fill="rgba(255,255,255,0.72)" opacity="0.5"/><text x="54" y="222.5" font-family="Segoe UI, Roboto, Helvetica, Arial, sans-serif" font-size="14" font-weight="500" fill="rgba(255,255,255,0.72)" text-anchor="start" dominant-baseline="middle">Portaria</text><rect x="26" y="260" width="16" height="16" rx="4" fill="rgba(255,255,255,0.72)" opacity="0.5"/><text x="54" y="268.5" font-family="Segoe UI, Roboto, Helvetica, Arial, sans-serif" font-size="14" font-weight="500" fill="rgba(255,255,255,0.72)" text-anchor="start" dominant-baseline="middle">Encomendas</text><rect x="26" y="306" width="16" height="16" rx="4" fill="rgba(255,255,255,0.72)" opacity="0.5"/><text x="54" y="314.5" font-family="Segoe UI, Roboto, Helvetica, Arial, sans-serif" font-size="14" font-weight="500" fill="rgba(255,255,255,0.72)" text-anchor="start" dominant-baseline="middle">Comunicados</text><rect x="26" y="352" width="16" height="16" rx="4" fill="rgba(255,255,255,0.72)" opacity="0.5"/><text x="54" y="360.5" font-family="Segoe UI, Roboto, Helvetica, Arial, sans-serif" font-size="14" font-weight="500" fill="rgba(255,255,255,0.72)" text-anchor="start" dominant-baseline="middle">Veículos</text><rect x="26" y="398" width="16" height="16" rx="4" fill="rgba(255,255,255,0.72)" opacity="0.5"/><text x="54" y="406.5" font-family="Segoe UI, Roboto, Helvetica, Arial, sans-serif" font-size="14" font-weight="500" fill="rgba(255,255,255,0.72)" text-anchor="start" dominant-baseline="middle">Garagem</text><rect x="26" y="444" width="16" height="16" rx="4" fill="rgba(255,255,255,0.72)" opacity="0.5"/><text x="54" y="452.5" font-family="Segoe UI, Roboto, Helvetica, Arial, sans-serif" font-size="14" font-weight="500" fill="rgba(255,255,255,0.72)" text-anchor="start" dominant-baseline="middle">Unidades</text><rect x="26" y="490" width="16" height="16" rx="4" fill="rgba(255,255,255,0.72)" opacity="0.5"/><text x="54" y="498.5" font-family="Segoe UI, Roboto, Helvetica, Arial, sans-serif" font-size="14" font-weight="500" fill="rgba(255,255,255,0.72)" text-anchor="start" dominant-baseline="middle">Configuração</text><text x="284" y="30" font-family="Segoe UI, Roboto, Helvetica, Arial, sans-serif" font-size="22" font-weight="700" fill="#1f2433" text-anchor="start" dominant-baseline="middle">Dashboard</text><text x="284" y="58" font-family="Segoe UI, Roboto, Helvetica, Arial, sans-serif" font-size="13" font-weight="400" fill="#8a90a5" text-anchor="start" dominant-baseline="middle">Visão geral do condomínio</text><circle cx="1236" cy="40" r="16" fill="#eef0f6"/><text x="1236" y="41" font-family="Segoe UI, Roboto, Helvetica, Arial, sans-serif" font-size="13" font-weight="400" fill="#8a90a5" text-anchor="middle" dominant-baseline="middle">☾</text><rect x="1264" y="22" width="160" height="36" rx="18" fill="#eef0f6"/><rect x="1272" y="28" width="24" height="24" rx="6" fill="#4f46e5"/><text x="1284" y="41" font-family="Segoe UI, Roboto, Helvetica, Arial, sans-serif" font-size="10" font-weight="700" fill="#fff" text-anchor="middle" dominant-baseline="middle">EC</text><text x="1304" y="41" font-family="Segoe UI, Roboto, Helvetica, Arial, sans-serif" font-size="12" font-weight="600" fill="#1f2433" text-anchor="start" dominant-baseline="middle">Ernandes Campos</text><rect x="284" y="104" width="366" height="150" rx="12" fill="#fff" stroke="#e5e7f0" stroke-width="1"/><rect x="308" y="128" width="40" height="40" rx="10" fill="#eef2ff"/><rect x="308" y="186" width="200" height="12" rx="6" fill="#eceef5"/><rect x="308" y="210" width="140" height="12" rx="6" fill="#eceef5"/><rect x="674" y="104" width="366" height="150" rx="12" fill="#fff" stroke="#e5e7f0" stroke-width="1"/><rect x="698" y="128" width="40" height="40" rx="10" fill="#eef2ff"/><rect x="698" y="186" width="200" height="12" rx="6" fill="#eceef5"/><rect x="698" y="210" width="140" height="12" rx="6" fill="#eceef5"/><rect x="1064" y="104" width="366" height="150" rx="12" fill="#fff" stroke="#e5e7f0" stroke-width="1"/><rect x="1088" y="128" width="40" height="40" rx="10" fill="#eef2ff"/><rect x="1088" y="186" width="200" height="12" rx="6" fill="#eceef5"/><rect x="1088" y="210" width="140" height="12" rx="6" fill="#eceef5"/></svg>